<?xml version="1.0" encoding="UTF-8"?><svg xmlns="http://www.w3.org/2000/svg" viewBox="0 0 453.4 132.3"><defs><style>.d{fill:#fff;}</style></defs><g id="a"/><g id="b"><g id="c"><g><path class="d" d="M123.7,33.9h0c0-.1-.1-.1-.1-.1-.1-.3-.3-.5-.4-.8h0c-.2-.3-.4-.6-.5-.9h0l-.1-.1c-.1-.2-.3-.4-.4-.7-2.7-4.4-5.9-8.4-9.4-12h0c-8.7-8.7-19.9-15-32.4-17.7h-.2c-.5-.1-1.1-.2-1.6-.3-.1,0-.2,0-.3-.1-.3-.1-.6-.1-.9-.2-.2,0-.4-.1-.5-.1-.4-.1-.8-.1-1.2-.2-.2,0-.5-.1-.7-.1-.3,0-.5-.1-.8-.1-.4,0-.7-.1-1.1-.1-.2,0-.4,0-.6-.1-.4,0-.9-.1-1.3-.1h-.4c-.4,0-.8-.1-1.2-.1h-.3c-.5,0-1,0-1.4-.1h-3.6c-.5,0-1,0-1.4,.1h-.3c-.4,0-.8,0-1.2,.1h-.4c-.4,0-.9,.1-1.3,.1-.2,0-.4,0-.6,.1-.4,0-.7,.1-1.1,.1-.3,0-.5,.1-.8,.1-.2,0-.5,.1-.7,.1-.4,.1-.8,.1-1.2,.2-.2,0-.4,.1-.5,.1-.3,0-.6,.1-.9,.2-.1,0-.2,0-.3,.1-.5,.1-1.1,.2-1.6,.3h-.2c-.9,.2-1.9,.4-2.8,.7h0c-11.3,3-21.5,9-29.5,17h0c-.7,.7-1.3,1.4-2,2.1-.2,.2-.3,.4-.5,.6l-.5,.5C6.2,34.1,0,49.4,0,66.2c0,14.6,4.8,28.1,12.8,39.1,0,0,0,.1,.1,.1,.3,.5,.7,.9,1,1.3,.4,.5,.8,1,1.1,1.4l.1,.1c1.4,1.7,2.8,3.2,4.3,4.7h0c8.1,8.1,18.2,14,29.6,17.1h0c.9,.2,1.9,.5,2.8,.7h.2c.5,.1,1.1,.2,1.6,.3,.1,0,.2,0,.3,.1,.3,.1,.6,.1,.9,.2,.2,0,.4,.1,.5,.1,.4,.1,.8,.1,1.2,.2,.2,0,.5,.1,.7,.1,.3,0,.5,.1,.8,.1,.4,0,.7,.1,1.1,.1,.2,0,.4,0,.6,.1,.4,0,.9,.1,1.3,.1h.4c.4,0,.8,.1,1.2,.1h.3c.5,0,1,0,1.4,.1h3.6c.5,0,1,0,1.4-.1h.3c.4,0,.8,0,1.2-.1h.4c.4,0,.9-.1,1.3-.1,.2,0,.4,0,.6-.1,.4,0,.7-.1,1.1-.1,.3,0,.5-.1,.8-.1,.2,0,.5-.1,.7-.1,.4-.1,.8-.1,1.2-.2,.2,0,.3-.1,.5-.1,.3,0,.6-.1,.9-.2,.1,0,.2,0,.3-.1,.5-.1,1.1-.2,1.6-.3h.2c12.5-2.8,23.7-9,32.4-17.8h0c.7-.7,1.4-1.5,2.1-2.2l.2-.2c.3-.3,.5-.6,.8-.9,.2-.2,.4-.5,.6-.7,.2-.2,.3-.4,.5-.6,9.5-11.4,15.2-26.2,15.2-42.2-.2-11.7-3.2-22.7-8.5-32.2h0Zm5.5,32.1c0,5.6-.7,11.1-2.2,16.4l-14.4-3.9c-1.1,4-2.7,7.9-4.8,11.7s-4.8,7.1-7.7,10l10.5,10.5c-5.8,5.8-12.6,10.4-20.1,13.5-2.7,1.1-5.5,2.1-8.3,2.8l-3.8-14.4c-4,1.1-8.2,1.6-12.5,1.6s-8.5-.6-12.5-1.6l-3.8,14.4c-2.8-.7-5.6-1.7-8.3-2.8-7.5-3.2-14.3-7.7-20.1-13.5l10.5-10.4c-2.9-2.9-5.5-6.3-7.7-10s-3.8-7.7-4.8-11.7l-14.4,3.8c-1.4-5.3-2.2-10.8-2.2-16.4s.7-11.1,2.2-16.5l14.4,3.9c1.1-4,2.7-7.9,4.8-11.7,2.2-3.8,4.8-7.1,7.7-10l-10.5-10.5c5.8-5.8,12.5-10.3,20-13.5,2.7-1.1,5.5-2.1,8.3-2.8l3.8,14.4c4-1.1,8.2-1.6,12.5-1.6s8.5,.6,12.5,1.6l3.8-14.4c2.8,.7,5.6,1.7,8.3,2.8,7.5,3.2,14.3,7.7,20.1,13.5l-10.5,10.5c2.9,2.9,5.5,6.3,7.7,10,2.2,3.8,3.8,7.7,4.8,11.7l14.4-3.9c1.6,5.4,2.3,10.9,2.3,16.5Z"/><path class="d" d="M65.9,22.5c-24,0-43.5,19.5-43.5,43.5s19.5,43.5,43.5,43.5,43.5-19.5,43.5-43.5-19.4-43.5-43.5-43.5Zm-31.2,69.7c-4.8-5.7-7.8-12.4-9-19.7l6.8-4.9,5.3-1.1,9.4-4.8,2.9-2.4,2.1-3.3,6.8-3.8,1.9-2.1,.6,5.1-2.8,4.6-6.3,3.2-3.1,5.5-1.6,6.3-1.3,3.6-5.4,1.5-6.3,12.3Zm60.1,2.6c-7.7,7.7-17.9,11.9-28.8,11.9s-21.1-4.2-28.8-11.9l-.5-.5,6.1-12,5.6-1.6,1.8-5,1.6-6.2,2.5-4.5,6.3-3.2,3.7-6.1-.7-6.4,9,5.5,1.9,3.4,7.2,4.3,.5,4.6,6.2,3.5,6.5-1.7,3.2-2.7,8.7,1.7c-.7,10.3-4.8,19.7-12,26.9Zm2.3-31.4l-3.7,3.1-4.8,1.2-4-2.2-.5-4.6-7.7-4.6-1.9-3.4-13-7.9-4.4,4.9-7,3.9-2.2,3.5-2.3,1.9-8.8,4.5-5.5,1.2-6,4.3c-.1-1.1-.1-2.2-.1-3.3,0-10.9,4.2-21.1,11.9-28.8s17.9-11.9,28.8-11.9,21.1,4.2,28.8,11.9c7.5,7.5,11.7,17.5,11.9,28.1l-9.5-1.8Z"/><path class="d" d="M177.7,54.7c-6.3,0-10.4-4.8-10.4-10.7s4-10.7,10.2-10.7c3.5,0,7.4,1.5,9.9,3.9l3.3-3.3c-3.2-2.9-8.1-5-13.3-5-9.1,0-15.3,6.8-15.3,15s6.2,15,15.5,15c6.2,0,10.9-2.9,14-5.9l-3.3-3.2c-2.4,2.8-6.2,4.9-10.6,4.9Z"/><path class="d" d="M206.9,50.6h13.5l3.4,7.6h5.3l-13.1-28.3h-4.4l-13.1,28.3h5.1l3.3-7.6Zm6.7-14.9h.3l4.9,11h-10l4.8-11Z"/><path class="d" d="M264.3,49.6c0-7.9-8-8.4-13-8.8-4.3-.3-8.5-.4-8.5-3.5s3-4.1,6.4-4.1c5.2,0,8.7,1.9,10.3,3.3l2.9-3.4c-2.3-1.8-7.1-4.1-13-4.1-5.2,0-11.4,2-11.4,8.7s7.1,7.4,13.4,7.8c4.9,.4,8.2,1.1,8.2,4.7,0,3.2-3.3,4.6-7.5,4.6-6.3,0-10.3-3-12.6-5.1l-2.9,3.4c3.2,2.9,8,5.9,15.5,5.9,6.5,.1,12.2-2.6,12.2-9.4Z"/><rect class="d" x="275.5" y="29.9" width="4.9" height="28.3"/><polygon class="d" points="299.3 38.6 299.3 38.6 315.7 58.2 320 58.2 320 29.9 315.1 29.9 315.1 49.5 315.1 49.5 298.7 29.9 294.4 29.9 294.4 58.2 299.3 58.2 299.3 38.6"/><path class="d" d="M363.4,44c0-8.3-7.1-15-16-15s-15.9,6.7-15.9,15,7,15.1,15.9,15.1,16-6.7,16-15.1Zm-26.8,0c0-5.9,4.7-10.6,10.8-10.6s10.9,4.8,10.9,10.6-4.8,10.8-10.9,10.8c-6.1-.1-10.8-4.9-10.8-10.8Z"/><path class="d" d="M177.1,84.7c-4.3-.3-8.5-.4-8.5-3.5s3-4.1,6.4-4.1c5.2,0,8.7,1.9,10.3,3.3l2.9-3.4c-2.3-1.8-7.1-4.1-13-4.1-5.2,0-11.4,2-11.4,8.7s7.1,7.4,13.4,7.8c4.9,.4,8.2,1.1,8.2,4.7,0,3.2-3.3,4.6-7.5,4.6-6.3,0-10.3-3-12.6-5.1l-2.9,3.4c3.2,2.9,8,5.9,15.5,5.9,6.8,0,12.5-2.6,12.5-9.5-.3-7.8-8.3-8.3-13.3-8.7Z"/><polygon class="d" points="197.7 78.2 208.9 78.2 208.9 102.1 213.7 102.1 213.7 78.2 224.8 78.2 224.8 73.8 197.7 73.8 197.7 78.2"/><path class="d" d="M231.4,96.5c-2,0-3.4,1.4-3.4,3.2,0,1.7,1.5,3.1,3.4,3.1s3.5-1.4,3.5-3.1c0-1.8-1.5-3.2-3.5-3.2Z"/><polygon class="d" points="271 90.5 270.9 90.5 261.1 73.8 256.1 73.8 256.1 102.1 260.7 102.1 260.7 82.9 260.9 82.9 270.3 98.7 271.1 98.7 280.5 82.9 280.7 82.9 280.7 102.1 285.6 102.1 285.6 73.8 280.8 73.8 271 90.5"/><path class="d" d="M313,73c-8.9,0-15.9,6.7-15.9,15s7,15.1,15.9,15.1,16-6.7,16-15.1c.1-8.4-7-15-16-15Zm0,25.7c-6.1,0-10.8-4.9-10.8-10.8s4.7-10.6,10.8-10.6,10.9,4.8,10.9,10.6c.1,5.9-4.7,10.8-10.9,10.8Z"/><path class="d" d="M366.6,82.5c0-2.2-.8-4.2-2.3-5.7-1.8-2-4.4-3-8.2-3h-15.6v28.3h4.9v-10.9h10.1l6.1,10.9h5.6l-6.8-11.5c3.7-1.4,6.2-4.3,6.2-8.1Zm-9.5,4.4h-11.6v-8.8h10.8c1.5,0,3.1,.1,4.4,1.5,.7,.8,1.2,1.7,1.2,2.8-.1,2.5-2.3,4.5-4.8,4.5Z"/><rect class="d" x="378.8" y="73.8" width="4.9" height="28.3"/><polygon class="d" points="394.1 78.2 405.2 78.2 405.2 102.1 410.1 102.1 410.1 78.2 421.2 78.2 421.2 73.8 394.1 73.8 394.1 78.2"/><polygon class="d" points="453.4 73.8 429.8 73.8 429.8 78.2 446.4 78.2 428.9 99.1 428.9 102.1 453.4 102.1 453.4 97.8 436 97.8 453.4 76.9 453.4 73.8"/></g></g></g></svg>