<svg width="76" height="38" viewBox="0 0 76 38" fill="none" xmlns="http://www.w3.org/2000/svg">
<g clip-path="url(#clip0_13087_28042)">
<path d="M36.456 33.5286H5.96968C4.45836 33.5286 3.08004 32.8284 2.1443 31.6418C1.22009 30.4699 0.885245 29.1494 1.31265 27.4582L3.71715 18.4949C4.28168 16.3915 6.19671 14.9229 8.37372 14.9229H16.4972C17.9736 11.8144 23.562 2.60547 37.9256 2.60547H39.0691C53.4327 2.60547 59.0212 11.8144 60.4975 14.9229H68.621C70.798 14.9229 72.7131 16.3915 73.2776 18.4946L75.6821 27.4579C76.0737 28.9177 75.7707 30.4426 74.8504 31.6418C73.9307 32.8408 72.5364 33.5286 71.0251 33.5286H42.4542L39.4549 36.5277L36.456 33.5286Z" fill="url(#paint0_linear_13087_28042)"/>
<path d="M74.2495 27.6211L71.8451 18.658C71.4533 17.1976 70.1297 16.1823 68.6177 16.1823H59.5204C59.5204 16.1823 55.3925 3.86499 39.0659 3.86499C38.8708 3.86499 38.1177 3.86499 37.9226 3.86499C21.596 3.86499 17.4681 16.1823 17.4681 16.1823H8.37077C6.85875 16.1823 5.53518 17.1976 5.14336 18.658L2.73898 27.6211C2.16967 29.7436 3.76886 31.8284 5.96639 31.8284H14.7745H37.0658L39.452 34.2146L41.8383 31.8284H62.214H71.0221C73.2196 31.8284 74.8188 29.7436 74.2495 27.6211Z" fill="url(#paint1_linear_13087_28042)"/>
<path d="M2.74231 29.042L5.1467 20.0789C5.53851 18.6185 6.86208 17.6032 8.37411 17.6032H17.4714C17.4714 17.6032 21.5993 5.28589 37.9259 5.28589C38.1211 5.28589 38.8741 5.28589 39.0693 5.28589C55.3958 5.28589 59.5238 17.6032 59.5238 17.6032H68.6211C70.1331 17.6032 71.4567 18.6185 71.8485 20.0789L74.2529 29.042C74.2651 29.0877 74.2708 29.1332 74.281 29.1788C74.3994 28.667 74.4012 28.1174 74.2529 27.5642L71.8485 18.6011C71.4567 17.1407 70.1331 16.1254 68.6211 16.1254H59.5238C59.5238 16.1254 55.3958 3.80811 39.0693 3.80811C38.8741 3.80811 38.1211 3.80811 37.9259 3.80811C21.5993 3.80811 17.4714 16.1254 17.4714 16.1254H8.37411C6.86208 16.1254 5.53851 17.1407 5.1467 18.6011L2.74231 27.5642C2.59392 28.1174 2.59573 28.667 2.71414 29.1788C2.72439 29.1332 2.73004 29.0877 2.74231 29.042Z" fill="#1B0D36"/>
<path d="M75.7915 28.043C75.972 29.3176 75.64 30.602 74.8421 31.6417C73.9224 32.8407 72.528 33.5285 71.0167 33.5285H42.446L39.4467 36.5276L36.4478 33.5285H5.96136C4.45003 33.5285 3.07175 32.8283 2.13597 31.6417C1.32751 30.6165 0.970136 29.4776 1.17939 28.0763C0.69935 29.8389 1.23778 31.9412 2.14168 33.1195C3.06143 34.3185 4.45574 35.0063 5.96707 35.0063H36.4535L39.4468 37.9999L42.4402 35.0063H71.011C72.5223 35.0063 73.9166 34.3185 74.8364 33.1195C75.7459 31.9339 76.2872 29.8123 75.7915 28.043Z" fill="url(#paint2_linear_13087_28042)"/>
<path d="M12.9427 30.5457C12.042 30.5457 11.1973 30.3961 10.4319 30.1012C9.64732 29.8003 8.95599 29.3596 8.37794 28.7922C7.80269 28.2286 7.3505 27.5536 7.03537 26.7863C6.72397 26.0276 6.56641 25.1899 6.56641 24.296C6.56641 23.3898 6.73516 22.5469 7.06847 21.7913C7.40038 21.0389 7.86842 20.3802 8.45952 19.8341C9.0441 19.2931 9.73449 18.8747 10.5111 18.5903C11.2659 18.3139 12.084 18.1736 12.9427 18.1736C13.8186 18.1736 14.6456 18.3139 15.4008 18.5906C16.1756 18.8745 16.866 19.2928 17.4519 19.8341C17.706 20.069 17.9363 20.3245 18.1423 20.5993V19.3816C18.1423 18.8544 18.5698 18.4269 19.097 18.4269H22.8409C23.0455 18.4269 23.2357 18.4915 23.3909 18.6013C23.5494 18.4896 23.7406 18.4269 23.941 18.4269H28.31C28.6754 18.4269 29.0087 18.6353 29.1682 18.964L29.4059 19.4523L29.6441 18.9637C29.804 18.6353 30.1373 18.4269 30.5024 18.4269H34.7529L34.8349 18.0664C34.9184 17.7006 35.2083 17.4174 35.5761 17.3431C35.6395 17.3303 35.7029 17.324 35.7659 17.324C36.0689 17.324 36.3588 17.4685 36.5406 17.7207L39.4486 21.7575L42.3566 17.7207C42.5384 17.4685 42.8283 17.324 43.1314 17.324C43.1943 17.324 43.2577 17.3303 43.3211 17.3431C43.6889 17.4174 43.9788 17.7006 44.0623 18.0664L45.3816 23.8497V19.3816C45.3816 18.8544 45.809 18.4269 46.3363 18.4269H50.3006C51.3695 18.4269 52.2813 18.5929 53.01 18.9199C53.4668 19.126 53.8621 19.3865 54.1936 19.6998V19.3816C54.1936 18.8544 54.621 18.4269 55.1483 18.4269H58.9555C59.4827 18.4269 59.9102 18.8544 59.9102 19.3816V26.1008L64.2451 18.4185C64.4148 18.1186 64.7323 17.933 65.0768 17.933C65.4213 17.933 65.7387 18.1186 65.9084 18.4185L71.7337 28.7414C71.9001 29.037 71.8978 29.3989 71.7267 29.6919C71.5551 29.9852 71.2414 30.1653 70.902 30.1653H66.6454C66.3102 30.1653 65.9998 29.9896 65.8273 29.7024L65.4651 29.1004H64.6833L64.336 29.6931C64.1649 29.9856 63.8512 30.1653 63.5123 30.1653H59.2515C59.2016 30.1653 59.1522 30.1614 59.1037 30.1539C59.0557 30.1614 59.0058 30.1653 58.9555 30.1653H55.1483C54.621 30.1653 54.1936 29.7379 54.1936 29.2106V26.1017C53.8621 26.4166 53.4668 26.6777 53.0114 26.8826C52.4547 27.1327 51.7923 27.2886 51.0348 27.3485V29.2106C51.0348 29.7379 50.6073 30.1653 50.0801 30.1653H46.3363C46.2104 30.1653 46.0906 30.1411 45.9806 30.0968C45.8687 30.1416 45.7484 30.1653 45.6254 30.1653H41.6266C41.1455 30.1653 40.7394 29.8073 40.6793 29.33L40.6066 28.7526L40.2071 29.2752C40.0262 29.5113 39.746 29.65 39.4486 29.65C39.1512 29.65 38.871 29.5113 38.6902 29.2752L38.2906 28.7526L38.2179 29.33C38.1578 29.8073 37.7518 30.1653 37.2707 30.1653H33.2719C32.9814 30.1653 32.7064 30.0329 32.5255 29.8059C32.3442 29.5789 32.271 29.2106 32.271 29.2106C32.271 29.7379 31.8435 30.1653 31.3163 30.1653H27.5091C27.3142 30.1653 27.1329 30.1068 26.9818 30.0066C26.8303 30.1068 26.649 30.1653 26.4541 30.1653H19.097C18.5698 30.1653 18.1423 29.7379 18.1423 29.2106V28.0578C17.9517 28.3193 17.74 28.5643 17.5079 28.792C16.9303 29.3589 16.2394 29.7996 15.4539 30.1017C14.6871 30.3963 13.8424 30.5457 12.9427 30.5457Z" fill="url(#paint3_linear_13087_28042)"/>
<path d="M40.7382 8.42875C40.2371 8.51897 39.7111 8.514 39.1795 8.50431C38.714 8.49582 38.2449 8.45872 37.7982 8.32736C36.7791 8.02769 35.8653 7.10881 35.6187 6.0699C35.4799 5.48502 35.5721 4.86956 35.7309 4.29865C35.8563 3.84781 35.9579 3.34333 36.5017 3.24802C36.5499 3.23957 36.5977 3.23294 36.6448 3.2356C37.4343 3.28006 37.2297 2.57756 37.1838 2.24597C36.8945 0.154655 38.9379 0 38.9379 0C38.9379 0 39.1838 0.708093 39.7926 1.12069C40.2614 1.43848 40.8743 1.67703 41.3546 1.97347C42.1805 2.4833 42.9137 3.22266 43.2105 4.16641C43.5155 5.1359 43.3136 6.24134 42.7609 7.08396C42.5555 7.39694 42.2989 7.67667 41.9988 7.90107C41.6073 8.19388 41.1825 8.34875 40.7382 8.42875Z" fill="url(#paint4_linear_13087_28042)"/>
<path d="M41.8562 3.37609C41.3622 2.72296 40.6112 2.3682 39.8973 1.97694C39.3378 1.67032 38.1825 0.754996 38.9703 0C38.9703 0 37.7362 0.537028 38.0676 1.93102C38.1758 2.38619 38.3847 2.62802 38.6439 3.06491C38.8021 3.33159 38.8991 3.68512 38.7089 4.04095C38.5503 4.38484 38.2047 4.62486 37.8012 4.62486C37.3086 4.62486 36.9011 4.26843 36.8175 3.79985C36.8425 3.94005 36.6989 4.23208 36.6692 4.37417C36.6143 4.63703 36.5392 4.89375 36.5498 5.16467C36.5709 5.70157 36.8334 6.23086 37.2636 6.5564C37.8677 7.01352 38.9473 7.079 39.5182 6.52252C40.2585 5.80086 39.9463 4.99582 39.93 4.95441C39.93 4.95441 39.9439 4.95975 39.952 4.96286C40.5932 5.03244 41.0941 5.56923 41.0941 6.22892C41.0941 6.60807 40.9261 6.94502 40.6642 7.17939C40.7835 7.1707 40.9477 7.12943 41.385 6.80236C42.2915 6.12441 42.6086 4.75852 42.1239 3.8033C42.0461 3.6501 41.9562 3.50827 41.8562 3.37609Z" fill="url(#paint5_linear_13087_28042)"/>
<path d="M12.943 29.2808C12.1608 29.2808 11.4312 29.1529 10.7753 28.9002C10.1129 28.6459 9.53114 28.2758 9.04679 27.8005C8.56384 27.3273 8.18438 26.7595 7.91866 26.1132C7.65481 25.4699 7.52148 24.7543 7.52148 23.9858C7.52148 23.2129 7.6632 22.4997 7.94244 21.8664C8.22167 21.2331 8.61419 20.6812 9.10786 20.225C9.59967 19.77 10.1824 19.4174 10.8397 19.1768C11.4891 18.9388 12.1972 18.8181 12.943 18.8181C13.7066 18.8181 14.4231 18.9388 15.0725 19.1768C15.7293 19.4174 16.3116 19.77 16.8043 20.2252C17.2994 20.6828 17.6882 21.2368 17.959 21.8715C18.2285 22.5048 18.3651 23.216 18.3651 23.9858C18.3651 24.7543 18.2317 25.4699 17.9683 26.1127C17.704 26.757 17.3246 27.3245 16.8398 27.8003C16.3559 28.2753 15.7746 28.6454 15.1117 28.9004C14.4548 29.1529 13.7253 29.2808 12.943 29.2808ZM12.943 22.2827C12.6163 22.2827 12.3496 22.3489 12.1277 22.485C11.9086 22.6197 11.7431 22.8046 11.6219 23.0498C11.4946 23.3076 11.4303 23.6222 11.4303 23.9858C11.4303 24.342 11.4951 24.6555 11.6228 24.9177C11.744 25.1669 11.9091 25.3529 12.1277 25.4869C12.3491 25.6233 12.6158 25.6892 12.943 25.6892C13.2708 25.6892 13.5374 25.6233 13.7584 25.4871C13.977 25.3529 14.1425 25.1666 14.2642 24.9177C14.3914 24.6555 14.4562 24.3418 14.4562 23.9858C14.4562 23.6187 14.3947 23.301 14.273 23.0409C14.1597 22.7987 14.0008 22.6162 13.7873 22.4831C13.5742 22.35 13.2899 22.2827 12.943 22.2827ZM66.6458 28.9004L66.0057 27.8355H64.1364L63.5127 28.9004H59.2519L65.0771 18.5776L70.9024 28.9004H66.6458ZM55.1486 28.9004V19.0715H58.9558V28.9004H55.1486ZM46.3366 28.9004V19.0715H50.3009C51.2342 19.0715 52.0146 19.2092 52.6197 19.4808C53.2569 19.7682 53.7357 20.1868 54.0429 20.7257C54.3412 21.2499 54.4923 21.8776 54.4923 22.5915C54.4923 23.2966 54.3417 23.9215 54.0443 24.4487C53.7361 24.9937 53.2574 25.4151 52.6201 25.7018C52.015 25.9736 51.2351 26.1116 50.3009 26.1116H50.0804V28.9004H46.3366ZM50.3009 22.9381C50.6058 22.9381 50.7359 22.8698 50.7858 22.8293C50.8324 22.7915 50.8753 22.737 50.8753 22.5915C50.8753 22.4463 50.8324 22.3918 50.7862 22.3545C50.7354 22.3132 50.6058 22.2449 50.3009 22.2449H50.0804V22.9381H50.3009ZM41.6269 28.9004L41.2633 26.0123L39.449 28.3851L37.6346 26.0123L37.271 28.9004H33.2722L35.7662 17.9685L39.449 23.0805L43.1317 17.9685L45.6257 28.9004H41.6269ZM27.5094 28.9004V25.093L23.9414 19.0715H28.3103L29.4063 21.3233L30.5027 19.0715H34.8721L31.3166 25.0678V28.9004H27.5094ZM19.0974 28.9004V19.0715H22.8412V25.6004H26.4545V28.9004H19.0974Z" fill="url(#paint6_linear_13087_28042)"/>
<path d="M16.4805 20.5249C16.0325 20.1109 15.5084 19.794 14.9087 19.5742C14.3084 19.3543 13.6532 19.2445 12.9434 19.2445C12.2505 19.2445 11.604 19.3543 11.0038 19.5742C10.4036 19.794 9.87947 20.1109 9.43194 20.5249C8.98349 20.939 8.63318 21.4335 8.37961 22.0081C8.12604 22.5831 7.99902 23.2253 7.99902 23.9351C7.99902 24.6451 8.11962 25.2939 8.36035 25.8811C8.60154 26.4687 8.94131 26.9777 9.38104 27.4089C9.82032 27.8399 10.3426 28.1717 10.9469 28.4039C11.5508 28.6364 12.2166 28.7527 12.9434 28.7527C13.6702 28.7527 14.336 28.6364 14.9403 28.4039C15.5442 28.1717 16.0665 27.8399 16.5057 27.4089C16.945 26.9777 17.2857 26.4687 17.5264 25.8811C17.7672 25.2939 17.8878 24.6451 17.8878 23.9351C17.8878 23.2253 17.7649 22.5831 17.52 22.0081C17.2747 21.4335 16.9285 20.939 16.4805 20.5249ZM14.6932 25.0761C14.5322 25.4058 14.3043 25.6614 14.0086 25.843C13.7124 26.0251 13.3574 26.1156 12.9434 26.1156C12.5293 26.1156 12.1744 26.0251 11.8787 25.843C11.5825 25.6614 11.3546 25.4058 11.1941 25.0761C11.0331 24.7464 10.9529 24.3661 10.9529 23.9351C10.9529 23.4958 11.0331 23.1134 11.1941 22.7878C11.3546 22.4625 11.5825 22.2091 11.8787 22.0271C12.1744 21.8455 12.5293 21.7545 12.9434 21.7545C13.3827 21.7545 13.7486 21.8455 14.0402 22.0271C14.3318 22.2091 14.5533 22.4625 14.7055 22.7878C14.8578 23.1134 14.9339 23.4958 14.9339 23.9351C14.9339 24.3661 14.8536 24.7464 14.6932 25.0761ZM22.364 26.0269H25.9773V28.3723H19.5748V19.4981H22.364V26.0269ZM34.034 19.4981L30.8394 24.8861V28.3723H27.9869V24.9113L24.7795 19.4981H28.0121L29.4065 22.3632L30.8014 19.4981H34.034ZM42.9016 19.0542L45.0274 28.3723H42.0479L41.5916 24.7464L39.4494 27.5483L37.3066 24.7464L36.8504 28.3723H33.8709L35.9966 19.0542L39.4494 23.8463L42.9016 19.0542ZM52.4244 19.8656C51.8792 19.6207 51.1712 19.4981 50.3009 19.4981H49.6035H48.6144H46.8142V28.3723H49.6035V25.5833H50.3009C51.1712 25.5833 51.8792 25.4608 52.4244 25.2155C52.9691 24.9707 53.3708 24.6197 53.6285 24.1634C53.8862 23.7069 54.015 23.1661 54.015 22.5407C54.015 21.9067 53.8862 21.3638 53.6285 20.9115C53.3708 20.4596 52.9691 20.1109 52.4244 19.8656ZM51.0868 23.1491C50.9094 23.2929 50.6471 23.3646 50.3009 23.3646H49.6035V21.7167H50.3009C50.6471 21.7167 50.9094 21.7884 51.0868 21.9322C51.2643 22.0759 51.3528 22.2788 51.3528 22.5407C51.3528 22.8027 51.2643 23.0056 51.0868 23.1491ZM55.626 19.4981H58.4785V28.3723H55.626V19.4981ZM66.9157 28.3723H70.0851L65.0774 19.4981L60.0698 28.3723H63.2392L63.863 27.3073H66.2759L66.9157 28.3723ZM65.9036 25.5833H64.2509L65.0774 23.8524L65.9036 25.5833Z" fill="url(#paint7_linear_13087_28042)"/>
<path d="M51.7181 16.9799C51.7215 16.9411 51.7638 9.4624 51.7638 9.26731C51.7638 8.85697 51.3604 7.97555 50.9388 7.97555L48.9873 7.97556C48.7146 7.97556 48.4752 8.11952 48.3402 8.33239L48.1792 8.54412C48.0161 8.76452 48.0295 9.11964 48.0298 9.27901L48.0961 11.861L44.1758 8.19612C44.0446 8.08392 44.3738 8.00026 44.2018 7.97555C44.1554 7.96716 44.1083 7.96265 44.0612 7.96265C43.4489 7.96265 42.5508 8.24463 42.5508 9.02451V17.3911C42.5508 17.5881 42.6312 17.7772 42.7745 17.9164C43.0128 18.1481 43.1848 18.1481 43.9083 18.1481C44.5747 18.1481 45.5599 18.1338 45.5599 18.1338C45.9799 18.1279 46.316 17.7931 46.3123 17.3843L46.2934 15.3574C46.2934 15.3574 49.1473 17.783 49.1482 17.7838C49.3899 17.9892 49.7634 18.0164 50.0522 18.1222C50.4077 18.2525 50.8151 18.2423 51.1608 18.0858C51.6073 17.8836 51.6768 17.4605 51.7181 16.9799Z" fill="url(#paint8_linear_13087_28042)"/>
<path d="M42.1568 8.7811C42.0119 8.60908 41.7951 8.5095 41.5662 8.5095H37.3264C37.0861 8.51084 36.8539 8.62627 36.7108 8.81391C36.6536 8.88896 36.6103 8.99621 36.5752 9.11598V8.71866C36.5752 8.51958 36.4929 8.32886 36.3472 8.18918C36.2041 8.05221 36.0116 7.97559 35.8113 7.97559C35.8074 7.97559 35.3848 7.98214 35.3848 7.98214H33.598C33.2814 7.98214 32.9978 8.17196 32.8847 8.45947L32.0405 10.6041L31.5762 9.57671L31.5375 9.49961C31.3841 9.19599 31.0725 9.00754 30.714 9.00754C30.3642 9.00754 30.0523 9.19689 29.9005 9.49985L29.8488 9.60392L29.3973 10.6041L28.5531 8.45947C28.44 8.17196 28.1564 7.98214 27.8398 7.98214H25.6267C25.4158 7.98214 24.8472 8.55798 24.9078 9.487C24.9125 9.56071 24.9286 9.63326 24.9554 9.70243L27.892 17.2702C27.9719 17.4648 28.1715 18.2404 28.8815 18.2404C29.2759 18.2404 29.6511 18.02 29.8607 17.6651L29.8593 17.6645C29.9183 17.5622 30.0917 17.2486 30.7073 16.1311C31.3958 17.4257 31.403 17.4375 31.4384 17.4948C31.5363 17.6665 31.8342 18.1887 32.478 18.1887C32.9362 18.1887 33.3157 17.9327 33.498 17.4914L36.4119 9.88572C36.4249 10.0505 36.4941 10.3242 36.5288 10.4351L37.901 16.4848C37.9203 16.6335 37.979 16.7761 38.0918 16.9229L38.8508 17.8328C38.9958 18.0068 39.2137 18.1078 39.4442 18.1078C39.6745 18.1078 39.8927 18.0068 40.0376 17.833L40.8178 16.8967C40.9096 16.7761 40.9683 16.6335 40.9868 16.4909L42.3477 10.4797C42.4219 10.2382 42.4459 9.59862 42.3226 9.14774C42.3032 9.01468 42.2468 8.88747 42.1568 8.7811Z" fill="url(#paint9_linear_13087_28042)"/>
<path d="M43.7148 16.8926V8.35483C43.7148 8.10449 44.0452 7.97559 44.2016 7.97559C44.3054 7.97559 44.5237 8.48246 44.6017 8.55635L48.7976 12.3464L48.7919 8.25021L48.9944 7.97559L50.7255 8.50261C50.8409 8.51936 50.9386 8.64152 50.9386 8.81284C50.9386 8.81284 50.9386 16.4086 50.9386 16.4264C50.9386 16.5497 50.9431 16.7571 50.8705 16.8222C50.6276 17.0398 50.282 16.7262 50.1115 16.5772L46.141 13.1063L46.1753 16.8926C46.1753 16.8926 43.7475 16.9252 43.7148 16.8926Z" fill="url(#paint10_linear_13087_28042)"/>
<path d="M50.9384 7.97559V15.7724C50.9384 15.8938 50.7967 15.9601 50.7035 15.8824L46.0128 11.9721V15.9282H44.0596V8.11907C44.0596 7.99554 44.2055 7.92997 44.2979 8.01199L48.9851 12.098V7.97559H50.9384Z" fill="url(#paint11_linear_13087_28042)"/>
<path d="M41.5566 8.50928H39.4469H39.439H37.3293C37.2859 8.50928 37.1822 9.25701 37.2715 9.55635L37.7164 11.4788C37.7292 11.5375 37.7774 11.5823 37.8371 11.5902C38.2017 11.6392 38.6146 11.6799 39.0004 11.6944C39.1463 11.7044 39.2926 11.709 39.439 11.7096V11.7099C39.4403 11.7099 39.4416 11.7098 39.4429 11.7098C39.4443 11.7098 39.4456 11.7099 39.4469 11.7099V11.7096C39.5933 11.709 39.7396 11.7044 39.8855 11.6944C40.2713 11.6799 40.6842 11.6392 41.0488 11.5902C41.1085 11.5823 41.1567 11.5375 41.1695 11.4788L41.6144 9.55635C41.7037 9.25701 41.6 8.50928 41.5566 8.50928Z" fill="url(#paint12_linear_13087_28042)"/>
<path d="M40.6402 12.5557C40.6132 12.5286 40.4915 12.3892 40.454 12.3892C40.4477 12.3892 39.456 12.5394 39.448 12.5394C39.448 12.5394 38.45 12.3892 38.4437 12.3892C38.4062 12.3892 38.2907 12.5286 38.2637 12.5557C38.2322 12.5872 38.2171 12.6314 38.2229 12.6755L38.6664 15.9626C38.6694 15.9866 38.6785 16.0094 38.693 16.029L39.452 16.8944L40.211 16.029C40.2254 16.0094 40.2345 15.9866 40.2375 15.9626L40.681 12.6755C40.6868 12.6314 40.6717 12.5872 40.6402 12.5557Z" fill="url(#paint13_linear_13087_28042)"/>
<path d="M39.7319 12.4498C39.9759 12.4407 40.2166 12.4209 40.454 12.3889L40.0967 15.1294L39.4489 15.928L38.8011 15.1294L38.4438 12.3889C38.6812 12.4209 38.9219 12.4407 39.1659 12.4498C39.2402 12.455 39.3031 12.4578 39.3632 12.4598C39.4207 12.4604 39.477 12.4617 39.5346 12.4598C39.5947 12.4578 39.6576 12.455 39.7319 12.4498ZM37.3311 8.50928L37.8664 10.9671C38.236 11.0166 38.6107 11.0475 38.9904 11.0617C39.2954 11.0829 39.6026 11.0829 39.9074 11.0617C40.2871 11.0475 40.6618 11.0166 41.0315 10.9671L41.5668 8.50928H37.3311Z" fill="url(#paint14_linear_13087_28042)"/>
<path opacity="0.99" d="M32.641 16.9462C32.4056 16.9462 32.3065 16.6772 32.2235 16.5469C32.2184 16.539 30.882 13.9556 30.882 13.9556C30.882 13.9556 29.3675 16.7825 29.3614 16.7911C29.2915 16.9128 29.173 16.9993 29.0444 16.9993C28.8463 16.9993 28.7842 16.8284 28.7153 16.656L25.7896 8.9053C25.7896 8.9053 25.7312 7.98227 25.7896 7.98227L27.7532 8.61597L28.1373 8.92555L29.4776 12.0532L30.5641 9.71938L30.607 9.63057C30.6839 9.47417 30.7373 9.35635 30.9117 9.35635C31.0958 9.35635 31.1344 9.44092 31.1999 9.55659C31.5199 10.1217 32.1799 12.1732 32.1799 12.1732L33.7031 8.18585C33.7493 8.06581 33.7594 8.00835 33.8881 8.00835L35.9743 7.97559V8.88345L32.9472 16.7209C32.8778 16.8936 32.7709 16.9462 32.641 16.9462Z" fill="url(#paint15_linear_13087_28042)"/>
<path d="M33.7615 7.98218L32.2521 11.9236L31.0532 9.19244L31.0154 9.11494C30.9884 9.06008 30.9353 9.03453 30.8827 9.03616V9.03601L30.8824 9.03607L30.8821 9.03601V9.03616C30.8294 9.03453 30.7763 9.06008 30.7494 9.11494L30.7116 9.19244L29.5127 11.9236L28.0033 7.98218H25.79L28.9434 15.8364C28.9881 15.9477 29.1409 15.9573 29.2002 15.8538C29.2006 15.8531 29.2014 15.8529 29.2018 15.8522L30.8776 12.7961L30.8821 12.8044V12.8054L30.8824 12.8049L30.8827 12.8054V12.8044L30.8872 12.7961L32.563 15.8522C32.5634 15.8529 32.5642 15.8531 32.5646 15.8538C32.6239 15.9573 32.7766 15.9477 32.8213 15.8364L35.9747 7.98218H33.7615Z" fill="url(#paint16_linear_13087_28042)"/>
<path d="M70.7524 20.2491C69.9757 18.6956 68.9191 18.2491 68.2524 17.7491C64.9191 15.2491 61.2524 16.2491 59.2524 15.2491C57.2524 14.2491 57.7002 11.1956 57.2002 10.6956C56.7002 10.1956 54.1176 7.346 52.2002 6.19555C49.7002 4.69556 48.2002 4.19554 48.2002 4.19554C48.2002 4.19554 49.2002 3.07056 53.7002 4.19556C59.2002 5.57056 61.2524 8.74906 62.2524 10.2491C63.2524 11.7491 64.7524 11.2491 66.2524 11.7491C67.7524 12.2491 68.7524 11.2491 71.7524 14.2491C73.7524 16.2491 74.7002 20.1956 74.7002 21.6956C74.7002 23.1956 72.2256 23.1955 70.7524 20.2491Z" fill="#97B3E7"/>
<path d="M5.94778 20.2491C6.72454 18.6956 7.78112 18.2491 8.44778 17.7491C11.7811 15.2491 15.4478 16.2491 17.4478 15.2491C19.4478 14.2491 19 11.1956 19.5 10.6956C20 10.1956 22.5826 7.346 24.5 6.19555C27 4.69556 28.5 4.19554 28.5 4.19554C28.5 4.19554 27.5 3.07056 23 4.19556C17.5 5.57056 15.4478 8.74906 14.4478 10.2491C13.4478 11.7491 11.9478 11.2491 10.4478 11.7491C8.94778 12.2491 7.94778 11.2491 4.94778 14.2491C2.94778 16.2491 2 20.1956 2 21.6956C2 23.1956 4.47455 23.1955 5.94778 20.2491Z" fill="#97B3E7"/>
<path d="M5 19.6956C5.4 18.8956 6.83333 17.6956 7.5 17.1956C11 17.1956 14.5 15.6956 16.5 14.6956C18.5 13.6956 19 11.1956 19.5 10.6956C20 10.1956 22.1348 6.84605 24.0522 5.6956C26.5522 4.19561 27.5 4.6956 28.5 4.19559C28.9472 3.97198 26.5 3.07059 22 4.19559C16.5 5.57059 14.5 8.19559 13.5 9.69559C12.5 11.1956 11 10.6956 9.5 11.1956C8 11.6956 7.70001 11.1956 4.70001 14.1956C2.70001 16.1956 2 19.6956 2 21.1956C2 22.6956 4.5 20.6956 5 19.6956Z" fill="white"/>
<path d="M71.752 19.6956C71.352 18.8956 69.9186 17.6956 69.252 17.1956C65.752 17.1956 62.252 15.6956 60.252 14.6956C58.252 13.6956 57.752 11.1956 57.252 10.6956C56.752 10.1956 54.6172 6.84605 52.6997 5.6956C50.1997 4.19561 49.252 4.6956 48.252 4.19559C47.8047 3.97198 50.252 3.07059 54.752 4.19559C60.252 5.57059 62.252 8.19559 63.252 9.69559C64.252 11.1956 65.752 10.6956 67.252 11.1956C68.752 11.6956 69.0519 11.1956 72.0519 14.1956C74.0519 16.1956 74.752 19.6956 74.752 21.1956C74.752 22.6956 72.252 20.6956 71.752 19.6956Z" fill="white"/>
<path d="M9.87238 13.7817C8.56251 14.1522 7.31631 13.4957 7.31631 13.4957C7.31631 13.4957 7.84742 14.3782 6.78895 15.2469C5.73049 16.1157 5.46633 16.1112 5.46633 16.1112C5.46633 16.1112 6.38558 16.3628 6.88156 16.7356C7.9782 17.5614 8.15471 18.4026 8.15471 18.4026C8.15471 18.4026 9.13893 17.2921 10.4906 17.1173C11.8414 16.9423 13.3134 15.9354 13.9338 16.1914C14.6392 16.4835 15.3364 16.6961 16.0277 15.6784C17.5962 13.3691 17.2563 14.6985 17.2563 14.6985L15.5886 14.3789C15.0671 14.3608 14.0363 14.2535 13.3283 13.7123C12.3465 12.9609 11.9737 12.3948 11.9737 12.3948C11.9737 12.3948 11.1824 13.4102 9.87238 13.7817Z" fill="#0A3516"/>
<path d="M9.85755 13.3863C8.54768 13.7569 7.2885 12.9502 7.2885 12.9502C7.2885 12.9502 7.53594 13.6587 6.86737 14.8492C6.48413 15.5305 5.4667 16.1112 5.4667 16.1112C5.4667 16.1112 5.91514 16.1134 6.61659 16.3156C7.93832 16.6965 8.42012 17.8989 8.42012 17.8989C8.42012 17.8989 9.12501 16.8969 10.4758 16.7219C11.8265 16.5469 13.5249 16.019 14.1452 16.2759C14.8505 16.568 15.4039 17.8617 16.0952 16.8439C17.6637 14.5346 17.2414 14.3031 17.2414 14.3031L15.5737 13.9835C15.0523 13.9654 14.0214 13.8581 13.3135 13.317C12.3316 12.5655 11.9589 11.9994 11.9589 11.9994C11.9589 11.9994 11.1676 13.0149 9.85755 13.3863Z" fill="url(#paint17_linear_13087_28042)"/>
<path d="M12.4499 14.8986C11.766 15.0102 10.7605 15.135 10.0631 15.2373C9.26208 15.3294 8.47179 15.4572 7.69138 15.6656L7.69402 15.6862C8.50638 15.7034 9.30133 15.5625 10.0917 15.4016L11.2763 15.1734C11.67 15.0905 12.0637 15.014 12.4563 14.9189L12.4499 14.8986Z" fill="#0E6B43"/>
<path d="M15.1945 10.176C15.1945 10.176 14.134 10.328 13.5599 9.47048C12.9858 8.61293 13.0797 7.55246 13.0797 7.55246C13.0797 7.55246 11.4034 8.72872 9.95625 7.90681C9.31923 7.54503 8.82048 7.05221 8.82048 7.05221C8.82048 7.05221 9.11544 8.06986 9.03828 8.58731C8.79522 10.221 8.01349 11.4503 8.01349 11.4503C8.01349 11.4503 9.38597 11.8008 10.1801 12.4628C10.9751 13.1248 10.3794 14.2535 10.3794 14.2535C10.3794 14.2535 11.6224 13.8582 12.3419 14.7026C13.0613 15.5469 12.952 16.4401 12.952 16.4401C12.952 16.4401 13.1455 16.311 14.2363 15.9828C15.3271 15.6539 16.4466 16.0471 16.4466 16.0471C16.4466 16.0471 16.1786 14.9004 16.6306 13.863C17.0825 12.8256 17.2341 12.649 17.2341 12.649C17.2341 12.649 16.3266 12.6569 15.5613 11.8526C14.796 11.0482 15.1945 10.176 15.1945 10.176Z" fill="#0A422A"/>
<path d="M15.3073 9.71869C15.3073 9.71869 14.2468 9.87075 13.6728 9.0132C13.0987 8.15565 13.1926 7.09518 13.1926 7.09518C13.1926 7.09518 11.8528 7.67905 10.2931 7.09518C9.58341 6.82975 8.19998 6.19192 8.19998 6.19192C8.19998 6.19192 8.62788 7.58883 8.69998 8.19193C8.8975 9.83338 8.42464 11.3158 8.42464 11.3158C8.42464 11.3158 9.49811 11.3426 10.2931 12.0047C11.0881 12.6667 10.8161 13.6942 10.8161 13.6942C10.8161 13.6942 11.7354 13.4001 12.4549 14.2444C13.1743 15.0888 13.065 15.982 13.065 15.982C13.065 15.982 13.2585 15.8529 14.3493 15.5247C15.4401 15.1958 16.5596 15.589 16.5596 15.589C16.5596 15.589 16.2916 14.4423 16.7436 13.4049C17.1955 12.3675 17.3471 12.1909 17.3471 12.1909C17.3471 12.1909 16.4396 12.1988 15.6743 11.3944C14.9089 10.5901 15.3073 9.71869 15.3073 9.71869Z" fill="url(#paint18_linear_13087_28042)"/>
<path d="M9.53574 10.2312C9.70978 10.1639 11.1763 10.1417 11.7094 9.98002C11.2757 9.45034 10.8345 8.92789 10.3644 8.42617L10.3777 8.41057C11.4672 9.24738 12.3149 10.3601 13.1233 11.4544C13.9381 12.5504 14.7207 13.6695 15.4746 14.8076L15.4572 14.8189C15.0574 14.2664 14.6496 13.7183 14.2383 13.1753C13.8292 12.6298 13.4128 12.0897 12.9902 11.5542C12.6233 11.1105 12.2645 10.6615 11.9025 10.2157C11.38 10.2444 9.85673 10.3193 9.53759 10.2508L9.53587 10.2303L9.53574 10.2312Z" fill="#0E6B43"/>
<path d="M16.9049 9.46072C18.7141 8.42256 17.2715 5.89235 17.2715 5.89235C17.2715 5.89235 18.4009 7.08704 19.8772 6.66695C21.3534 6.24685 22.212 5.80191 22.212 5.80191L22.6974 5.09603C22.6974 5.09603 22.2676 6.49116 22.1982 8.39146C22.1771 8.97282 22.8092 10.676 22.8092 10.676C22.8092 10.676 21.1199 10.2841 20.2643 11.4464C19.4084 12.6096 20.1012 14.7186 20.1012 14.7186C20.1012 14.7186 18.4077 14.4549 16.9314 14.2995C15.4551 14.1441 14.2141 15.0438 14.2141 15.0438L14.3753 14.7325C14.6119 14.2262 14.4925 13.2756 14.2443 12.2429C13.8993 10.8087 13.9662 9.97712 13.9662 9.97712C13.9662 9.97712 15.6474 10.182 16.9039 9.46128L16.9049 9.46072Z" fill="#0A422A"/>
<path d="M16.9952 8.66433C18.0466 7.67238 17.2723 5.89267 17.2723 5.89267C17.2723 5.89267 18.5493 6.55715 20.0255 6.13706C21.5017 5.71696 22.3603 5.27201 22.3603 5.27201L22.6982 5.09635L22.3901 6.0179C22.2746 6.43271 22.1231 7.06262 22.0015 7.86216C21.7709 9.36983 22.5875 10.4556 22.5875 10.4556C22.5875 10.4556 20.632 9.97872 19.7762 11.1419C18.9203 12.305 19.4543 14.1077 19.4543 14.1077C19.4543 14.1077 18.6657 13.7682 17.1887 13.6126C15.7124 13.4572 14.3624 14.5139 14.3624 14.5139L14.5236 14.2026C14.7602 13.6963 14.6409 12.7457 14.3926 11.713C14.0476 10.2788 14.1146 9.44723 14.1146 9.44723C14.1146 9.44723 15.9427 9.65683 16.9944 8.66411L16.9952 8.66433Z" fill="url(#paint19_linear_13087_28042)"/>
<path d="M16.4451 12.3792C16.3497 11.988 16.0395 10.6785 16.0753 10.3852L16.094 10.382C16.1658 10.523 16.4893 11.7026 16.5995 12.1441C16.9099 11.6743 17.2298 11.2097 17.5504 10.7461C17.8935 10.2409 18.2491 9.74254 18.6255 9.26089C18.6255 9.26089 18.325 7.63318 18.3669 7.28779L18.3856 7.28459C18.4541 7.41877 18.6816 8.55989 18.7846 9.06069C19.0528 8.72704 19.3322 8.40236 19.6274 8.09051C19.8931 7.82084 20.1508 7.54054 20.4781 7.34179L20.4908 7.36631C20.3529 7.4842 20.2312 7.62927 20.1129 7.7711C19.6606 8.33076 19.2972 8.74127 18.8778 9.27986C19.1245 9.26448 19.8058 9.22218 19.8058 9.22218C20.1493 9.20602 20.49 9.22102 20.8159 9.35034L20.8143 9.36837C20.6415 9.40432 20.3895 9.24095 18.7218 9.5271C18.7074 9.52984 18.6963 9.53011 18.685 9.53116C18.4121 9.89375 18.1091 10.3219 17.741 10.8832C17.5219 11.217 17.1389 11.8472 16.7638 12.4553C16.9948 12.4565 17.5415 12.4591 17.5415 12.4591C17.885 12.443 18.2257 12.458 18.5516 12.5873L18.55 12.6053C18.3773 12.6413 18.1398 12.5962 17.9715 12.5981C17.8257 12.6012 16.9734 12.6581 16.6343 12.6645C16.3547 13.1152 16.0919 13.5327 15.9183 13.7792C15.4965 14.3902 15.5461 13.9075 15.2198 14.5745L15.1935 14.5655C15.3343 14.2149 15.5233 13.8919 15.7096 13.5666C15.9445 13.164 16.1917 12.769 16.4453 12.3784L16.4451 12.3792Z" fill="#0E6B43"/>
<path d="M13.9996 14.0879C12.6764 13.8994 11.7553 12.6832 11.9422 11.3716C12.1291 10.0599 13.3533 9.14948 14.6765 9.33804C15.9996 9.52659 16.9207 10.7427 16.7338 12.0544C16.5469 13.3661 15.3228 14.2765 13.9996 14.0879Z" fill="#03472A"/>
<path d="M16.4501 17.7068C14.9364 17.4911 13.8778 16.1329 14.0859 14.6732C14.2939 13.2134 15.6896 12.205 17.2034 12.4207C18.7172 12.6364 19.7757 13.9946 19.5677 15.4543C19.3597 16.9141 17.9639 17.9225 16.4501 17.7068Z" fill="#0A422A"/>
<path d="M12.2824 18.1434C10.9371 17.9517 10.0051 16.6833 10.2008 15.3103C10.3964 13.9373 11.6456 12.9797 12.9909 13.1714C14.3362 13.3631 15.2682 14.6316 15.0725 16.0045C14.8768 17.3775 13.6277 18.3351 12.2824 18.1434Z" fill="#0A422A"/>
<path d="M12.067 17.4975C10.9183 17.3338 10.1187 16.278 10.2809 15.1394C10.4432 14.0007 11.5059 13.2103 12.6546 13.374C13.8032 13.5377 14.6028 14.5935 14.4406 15.7321C14.2783 16.8708 13.2156 17.6612 12.067 17.4975Z" fill="#760027"/>
<path d="M11.9319 17.1696C10.8722 17.0186 10.1346 16.0447 10.2843 14.9943C10.4339 13.9439 11.4143 13.2147 12.4739 13.3657C13.5336 13.5167 14.2712 14.4907 14.1215 15.5411C13.9719 16.5915 12.9915 17.3207 11.9319 17.1696Z" fill="url(#paint20_radial_13087_28042)"/>
<path d="M12.3265 14.0467C12.6121 14.0635 12.831 14.3074 12.8138 14.5914C12.7965 14.8754 12.5816 14.5777 12.2961 14.56C12.0105 14.5432 11.7621 14.8127 11.7784 14.5286C11.7947 14.2445 12.0401 14.0289 12.3265 14.0467Z" fill="#FF4775"/>
<path d="M14.2741 13.0545C13.1806 12.8987 12.4193 11.8936 12.5738 10.8096C12.7283 9.72559 13.74 8.97315 14.8335 9.12898C15.927 9.28481 16.6883 10.2899 16.5338 11.3739C16.3793 12.4579 15.3676 13.2103 14.2741 13.0545Z" fill="#760027"/>
<path d="M14.3151 12.6001C13.331 12.4598 12.6458 11.5553 12.7849 10.5797C12.9239 9.60405 13.8344 8.92686 14.8186 9.06711C15.8028 9.20735 16.4879 10.1119 16.3489 11.0875C16.2098 12.0631 15.2993 12.7403 14.3151 12.6001Z" fill="url(#paint21_radial_13087_28042)"/>
<path d="M15.2379 10.0378C15.4593 10.2185 15.4901 10.5434 15.3085 10.7616C15.1269 10.9798 15.1297 10.6146 14.9083 10.4338C14.6869 10.253 14.3256 10.3241 14.5081 10.106C14.6907 9.88793 15.0174 9.85714 15.2379 10.0378Z" fill="#FF4775"/>
<path d="M16.9411 17.4203C15.6004 17.2292 14.667 15.9969 14.8564 14.6678C15.0458 13.3387 16.2862 12.4161 17.627 12.6072C18.9678 12.7982 19.9011 14.0306 19.7117 15.3597C19.5223 16.6888 18.2819 17.6113 16.9411 17.4203Z" fill="#760027"/>
<path d="M16.9505 16.9648C15.7138 16.7886 14.8529 15.6519 15.0276 14.426C15.2023 13.2001 16.3464 12.3492 17.5831 12.5254C18.8198 12.7016 19.6806 13.8383 19.506 15.0642C19.3313 16.2901 18.1871 17.141 16.9505 16.9648Z" fill="url(#paint22_radial_13087_28042)"/>
<path d="M18.2354 13.472C18.574 13.7496 18.6221 14.2465 18.343 14.5815C18.0639 14.9166 18.0685 14.3564 17.7299 14.0788C17.3913 13.8012 16.8377 13.9111 17.1168 13.576C17.3959 13.241 17.8968 13.1944 18.2354 13.472Z" fill="#FF4775"/>
<path d="M66.7302 13.7822C68.04 14.1527 69.2862 13.4962 69.2862 13.4962C69.2862 13.4962 68.7551 14.3787 69.8136 15.2474C70.8721 16.1162 71.1362 16.1117 71.1362 16.1117C71.1362 16.1117 70.217 16.3633 69.721 16.7361C68.6243 17.5619 68.4478 18.4031 68.4478 18.4031C68.4478 18.4031 67.4636 17.2926 66.1119 17.1178C64.7612 16.9428 63.2891 15.9359 62.6687 16.1919C61.9633 16.484 61.2662 16.6966 60.5748 15.6789C59.0063 13.3696 59.3463 14.699 59.3463 14.699L61.014 14.3794C61.5354 14.3613 62.5663 14.254 63.2743 13.7128C64.2561 12.9614 64.6288 12.3952 64.6288 12.3952C64.6288 12.3952 65.4202 13.4107 66.7302 13.7822Z" fill="#0A3516"/>
<path d="M66.745 13.3868C68.0549 13.7574 69.314 12.9507 69.314 12.9507C69.314 12.9507 69.0666 13.6592 69.7352 14.8497C70.1184 15.531 71.1358 16.1117 71.1358 16.1117C71.1358 16.1117 70.6874 16.1139 69.9859 16.3161C68.6642 16.697 68.1824 17.8994 68.1824 17.8994C68.1824 17.8994 67.4775 16.8974 66.1268 16.7224C64.776 16.5474 63.0776 16.0194 62.4574 16.2764C61.752 16.5685 61.1987 17.8621 60.5073 16.8444C58.9388 14.5351 59.3611 14.3036 59.3611 14.3036L61.0288 13.984C61.5502 13.9659 62.5811 13.8586 63.2891 13.3175C64.2709 12.566 64.6436 11.9999 64.6436 11.9999C64.6436 11.9999 65.435 13.0153 66.745 13.3868Z" fill="url(#paint23_linear_13087_28042)"/>
<path d="M64.1527 14.8991C64.8366 15.0107 65.842 15.1354 66.5395 15.2378C67.3405 15.3299 68.1308 15.4577 68.9112 15.6661L68.9085 15.6867C68.0962 15.7039 67.3012 15.563 66.5108 15.4021L65.3263 15.1739C64.9326 15.091 64.5389 15.0144 64.1463 14.9193L64.1527 14.8991Z" fill="#0E6B43"/>
<path d="M61.4081 10.1765C61.4081 10.1765 62.4686 10.3285 63.0426 9.47097C63.6167 8.61342 63.5228 7.55295 63.5228 7.55295C63.5228 7.55295 65.1992 8.72921 66.6463 7.9073C67.2833 7.54552 67.7821 7.0527 67.7821 7.0527C67.7821 7.0527 67.4871 8.07034 67.5643 8.5878C67.8073 10.2215 68.589 11.4507 68.589 11.4507C68.589 11.4507 67.2166 11.8013 66.4224 12.4633C65.6274 13.1253 66.2231 14.254 66.2231 14.254C66.2231 14.254 64.9801 13.8586 64.2607 14.703C63.5412 15.5474 63.6505 16.4406 63.6505 16.4406C63.6505 16.4406 63.457 16.3115 62.3663 15.9833C61.2754 15.6544 60.1559 16.0476 60.1559 16.0476C60.1559 16.0476 60.4239 14.9009 59.972 13.8635C59.52 12.8261 59.3684 12.6495 59.3684 12.6495C59.3684 12.6495 60.2759 12.6574 61.0413 11.853C61.8066 11.0487 61.4081 10.1765 61.4081 10.1765Z" fill="#0A422A"/>
<path d="M61.2952 9.71918C61.2952 9.71918 62.3557 9.87124 62.9298 9.01369C63.5038 8.15614 63.41 7.09567 63.41 7.09567C63.41 7.09567 64.7498 7.67954 66.3094 7.09567C67.0191 6.83024 68.4026 6.19241 68.4026 6.19241C68.4026 6.19241 67.9747 7.58932 67.9026 8.19241C67.705 9.83387 68.1779 11.3163 68.1779 11.3163C68.1779 11.3163 67.1044 11.3431 66.3094 12.0051C65.5144 12.6672 65.7864 13.6947 65.7864 13.6947C65.7864 13.6947 64.8671 13.4005 64.1477 14.2449C63.4282 15.0893 63.5375 15.9825 63.5375 15.9825C63.5375 15.9825 63.344 15.8534 62.2533 15.5252C61.1624 15.1963 60.0429 15.5895 60.0429 15.5895C60.0429 15.5895 60.3109 14.4428 59.859 13.4054C59.407 12.368 59.2554 12.1914 59.2554 12.1914C59.2554 12.1914 60.163 12.1993 60.9283 11.3949C61.6936 10.5906 61.2952 9.71918 61.2952 9.71918Z" fill="url(#paint24_linear_13087_28042)"/>
<path d="M67.0668 10.2317C66.8928 10.1644 65.4263 10.1422 64.8932 9.98051C65.3268 9.45083 65.768 8.92838 66.2382 8.42666L66.2248 8.41106C65.1353 9.24787 64.2877 10.3606 63.4792 11.4548C62.6645 12.5509 61.8819 13.67 61.1279 14.8081L61.1454 14.8194C61.5451 14.2669 61.9529 13.7188 62.3642 13.1758C62.7733 12.6302 63.1897 12.0901 63.6123 11.5547C63.9793 11.111 64.338 10.662 64.7 10.2162C65.2226 10.2449 66.7458 10.3198 67.0649 10.2513L67.0667 10.2308L67.0668 10.2317Z" fill="#0E6B43"/>
<path d="M59.6977 9.46121C57.8884 8.42305 59.3311 5.89284 59.3311 5.89284C59.3311 5.89284 58.2016 7.08753 56.7254 6.66744C55.2491 6.24734 54.3906 5.8024 54.3906 5.8024L53.9052 5.09652C53.9052 5.09652 54.3349 6.49165 54.4043 8.39195C54.4254 8.97331 53.7934 10.6765 53.7934 10.6765C53.7934 10.6765 55.4826 10.2846 56.3383 11.4469C57.1941 12.6101 56.5013 14.7191 56.5013 14.7191C56.5013 14.7191 58.1949 14.4554 59.6712 14.3C61.1474 14.1446 62.3885 15.0443 62.3885 15.0443L62.2273 14.733C61.9906 14.2267 62.11 13.2761 62.3583 12.2434C62.7033 10.8092 62.6363 9.97761 62.6363 9.97761C62.6363 9.97761 60.9552 10.1824 59.6987 9.46177L59.6977 9.46121Z" fill="#0A422A"/>
<path d="M59.6074 8.66482C58.5559 7.67287 59.3303 5.89316 59.3303 5.89316C59.3303 5.89316 58.0533 6.55764 56.577 6.13754C55.1008 5.71745 54.2422 5.2725 54.2422 5.2725L53.9044 5.09684L54.2125 6.01839C54.3279 6.4332 54.4794 7.06311 54.6011 7.86265C54.8316 9.37032 54.0151 10.4561 54.0151 10.4561C54.0151 10.4561 55.9705 9.9792 56.8264 11.1423C57.6822 12.3055 57.1482 14.1082 57.1482 14.1082C57.1482 14.1082 57.9368 13.7687 59.4139 13.6131C60.8901 13.4577 62.2401 14.5144 62.2401 14.5144L62.0789 14.2031C61.8423 13.6968 61.9617 12.7462 62.2099 11.7135C62.5549 10.2793 62.488 9.44772 62.488 9.44772C62.488 9.44772 60.6598 9.65732 59.6082 8.6646L59.6074 8.66482Z" fill="url(#paint25_linear_13087_28042)"/>
<path d="M60.1574 12.3797C60.2528 11.9885 60.5631 10.679 60.5272 10.3857L60.5085 10.3825C60.4367 10.5235 60.1133 11.7031 60.003 12.1446C59.6927 11.6748 59.3727 11.2102 59.0522 10.7466C58.7091 10.2414 58.3534 9.74303 57.9771 9.26138C57.9771 9.26138 58.2775 7.63367 58.2357 7.28828L58.217 7.28508C58.1484 7.41926 57.921 8.56037 57.818 9.06118C57.5497 8.72753 57.2704 8.40285 56.9751 8.091C56.7094 7.82133 56.4517 7.54103 56.1244 7.34228L56.1117 7.3668C56.2496 7.48469 56.3713 7.62976 56.4896 7.77159C56.942 8.33125 57.3053 8.74176 57.7247 9.28035C57.478 9.26497 56.7968 9.22267 56.7968 9.22267C56.4533 9.20651 56.1125 9.22151 55.7867 9.35083L55.7883 9.36886C55.961 9.40481 56.213 9.24144 57.8808 9.52759C57.8951 9.53033 57.9062 9.5306 57.9175 9.53165C58.1904 9.89424 58.4935 10.3224 58.8615 10.8837C59.0807 11.2175 59.4637 11.8477 59.8388 12.4557C59.6078 12.457 59.061 12.4596 59.061 12.4596C58.7175 12.4434 58.3768 12.4584 58.0509 12.5878L58.0525 12.6058C58.2253 12.6417 58.4627 12.5967 58.631 12.5986C58.7768 12.6017 59.6291 12.6586 59.9682 12.665C60.2478 13.1157 60.5106 13.5331 60.6843 13.7797C61.106 14.3907 61.0564 13.908 61.3827 14.575L61.409 14.566C61.2682 14.2154 61.0792 13.8924 60.8929 13.5671C60.658 13.1645 60.4108 12.7695 60.1572 12.3789L60.1574 12.3797Z" fill="#0E6B43"/>
<path d="M62.6029 14.0884C63.9261 13.8999 64.8472 12.6837 64.6603 11.3721C64.4734 10.0604 63.2492 9.14997 61.9261 9.33852C60.6029 9.52708 59.6818 10.7432 59.8687 12.0549C60.0556 13.3665 61.2798 14.277 62.6029 14.0884Z" fill="#03472A"/>
<path d="M60.1524 17.7073C61.6662 17.4916 62.7247 16.1334 62.5167 14.6736C62.3087 13.2139 60.9129 12.2055 59.3991 12.4212C57.8854 12.6369 56.8268 13.9951 57.0348 15.4548C57.2429 16.9145 58.6386 17.923 60.1524 17.7073Z" fill="#0A422A"/>
<path d="M64.3202 18.1439C65.6655 17.9522 66.5974 16.6838 66.4018 15.3108C66.2061 13.9378 64.9569 12.9802 63.6116 13.1719C62.2664 13.3636 61.3344 14.6321 61.53 16.005C61.7257 17.378 62.9749 18.3356 64.3202 18.1439Z" fill="#0A422A"/>
<path d="M64.5356 17.498C65.6842 17.3343 66.4839 16.2785 66.3216 15.1399C66.1593 14.0012 65.0966 13.2108 63.948 13.3745C62.7993 13.5382 61.9997 14.594 62.162 15.7326C62.3242 16.8713 63.3869 17.6617 64.5356 17.498Z" fill="#760027"/>
<path d="M64.6707 17.1701C65.7303 17.0191 66.468 16.0452 66.3183 14.9948C66.1686 13.9444 65.1882 13.2152 64.1286 13.3662C63.069 13.5172 62.3313 14.4912 62.481 15.5416C62.6307 16.592 63.611 17.3211 64.6707 17.1701Z" fill="url(#paint26_radial_13087_28042)"/>
<path d="M64.276 14.0472C63.9904 14.064 63.7715 14.3079 63.7888 14.5919C63.806 14.8759 64.0209 14.5781 64.3064 14.5605C64.5921 14.5437 64.8404 14.8132 64.8241 14.5291C64.8078 14.245 64.5625 14.0294 64.276 14.0472Z" fill="#FF4775"/>
<path d="M62.3294 13.0553C63.423 12.8994 64.1842 11.8943 64.0297 10.8103C63.8753 9.72632 62.8636 8.97388 61.77 9.12971C60.6765 9.28554 59.9153 10.2906 60.0697 11.3746C60.2242 12.4586 61.2359 13.2111 62.3294 13.0553Z" fill="#760027"/>
<path d="M62.2864 12.6008C63.2706 12.4606 63.9557 11.556 63.8167 10.5804C63.6777 9.60478 62.7671 8.92759 61.783 9.06784C60.7988 9.20808 60.1137 10.1127 60.2527 11.0883C60.3917 12.0639 61.3023 12.7411 62.2864 12.6008Z" fill="url(#paint27_radial_13087_28042)"/>
<path d="M61.3646 10.0385C61.1432 10.2192 61.1124 10.5441 61.294 10.7623C61.4756 10.9805 61.4728 10.6153 61.6942 10.4345C61.9156 10.2538 62.2769 10.3248 62.0944 10.1067C61.9119 9.88867 61.5851 9.85787 61.3646 10.0385Z" fill="#FF4775"/>
<path d="M59.6614 17.4208C61.0022 17.2297 61.9355 15.9974 61.7461 14.6683C61.5567 13.3392 60.3163 12.4166 58.9755 12.6077C57.6348 12.7987 56.7014 14.0311 56.8908 15.3602C57.0802 16.6893 58.3206 17.6118 59.6614 17.4208Z" fill="#760027"/>
<path d="M59.6521 16.9653C60.8887 16.789 61.7496 15.6524 61.5749 14.4265C61.4002 13.2006 60.2561 12.3497 59.0195 12.5259C57.7828 12.7021 56.9219 13.8388 57.0966 15.0647C57.2713 16.2906 58.4154 17.1415 59.6521 16.9653Z" fill="url(#paint28_radial_13087_28042)"/>
<path d="M58.3672 13.4725C58.0286 13.7501 57.9804 14.2469 58.2595 14.582C58.5386 14.9171 58.5341 14.3569 58.8726 14.0793C59.2112 13.8017 59.7648 13.9116 59.4857 13.5765C59.2066 13.2414 58.7057 13.1949 58.3672 13.4725Z" fill="#FF4775"/>
</g>
<defs>
<linearGradient id="paint0_linear_13087_28042" x1="38.4892" y1="34.9558" x2="38.4892" y2="-5.65932" gradientUnits="userSpaceOnUse">
<stop stop-color="#FA7E1E"/>
<stop offset="0.373295" stop-color="#F5C200"/>
<stop offset="1" stop-color="#F5C200"/>
</linearGradient>
<linearGradient id="paint1_linear_13087_28042" x1="38.4942" y1="32.9582" x2="38.4942" y2="6.284" gradientUnits="userSpaceOnUse">
<stop stop-color="#1A0346"/>
<stop offset="1" stop-color="#37077D"/>
</linearGradient>
<linearGradient id="paint2_linear_13087_28042" x1="1.85945" y1="32.7108" x2="74.6807" y2="33.1165" gradientUnits="userSpaceOnUse">
<stop stop-color="#8E3900"/>
<stop offset="1" stop-color="#B26A00"/>
</linearGradient>
<linearGradient id="paint3_linear_13087_28042" x1="39.2116" y1="29.7656" x2="39.2116" y2="17.6981" gradientUnits="userSpaceOnUse">
<stop offset="0.0158432" stop-color="#1B0D36"/>
<stop offset="1" stop-color="#1E0A44"/>
</linearGradient>
<linearGradient id="paint4_linear_13087_28042" x1="39.4518" y1="8.50936" x2="39.4518" y2="0" gradientUnits="userSpaceOnUse">
<stop offset="0.0027933" stop-color="#29085F"/>
<stop offset="0.127575" stop-color="#28085C"/>
<stop offset="0.225784" stop-color="#250A52"/>
<stop offset="0.314658" stop-color="#1F0C41"/>
<stop offset="0.362523" stop-color="#1B0D35"/>
<stop offset="1" stop-color="#1B0D36"/>
</linearGradient>
<linearGradient id="paint5_linear_13087_28042" x1="39.4494" y1="10.79" x2="39.4494" y2="-2.28523" gradientUnits="userSpaceOnUse">
<stop offset="0.253712" stop-color="#FBF7AD"/>
<stop offset="0.978608" stop-color="#FABB00"/>
</linearGradient>
<linearGradient id="paint6_linear_13087_28042" x1="39.2119" y1="16.7068" x2="39.2119" y2="34.3643" gradientUnits="userSpaceOnUse">
<stop offset="0.194135" stop-color="#4D3EBB"/>
<stop offset="0.956625" stop-color="#320F75"/>
</linearGradient>
<linearGradient id="paint7_linear_13087_28042" x1="39.0421" y1="18.7952" x2="39.0421" y2="27.6017" gradientUnits="userSpaceOnUse">
<stop stop-color="#FFFFDC"/>
<stop offset="0.0871311" stop-color="#FFFED9"/>
<stop offset="0.142534" stop-color="#FFFBD1"/>
<stop offset="0.188948" stop-color="#FFF6C2"/>
<stop offset="0.226009" stop-color="#FFEFB0"/>
<stop offset="0.333555" stop-color="#FCE4B2"/>
<stop offset="0.522507" stop-color="#F4C7B8"/>
<stop offset="0.768628" stop-color="#E898C2"/>
<stop offset="1" stop-color="#DB65CD"/>
</linearGradient>
<linearGradient id="paint8_linear_13087_28042" x1="47.1573" y1="17.5055" x2="47.1573" y2="8.91628" gradientUnits="userSpaceOnUse">
<stop stop-color="#1E0A43"/>
<stop offset="1" stop-color="#260A65"/>
</linearGradient>
<linearGradient id="paint9_linear_13087_28042" x1="33.6563" y1="17.326" x2="33.6563" y2="9.17467" gradientUnits="userSpaceOnUse">
<stop offset="0.0195531" stop-color="#1E0A42"/>
<stop offset="1" stop-color="#290A61"/>
</linearGradient>
<linearGradient id="paint10_linear_13087_28042" x1="47.3268" y1="16.9071" x2="47.3268" y2="7.97559" gradientUnits="userSpaceOnUse">
<stop stop-color="#8C1700"/>
<stop offset="1" stop-color="#FF7B15"/>
</linearGradient>
<linearGradient id="paint11_linear_13087_28042" x1="47.499" y1="7.97559" x2="47.499" y2="15.9282" gradientUnits="userSpaceOnUse">
<stop stop-color="#FAF4A1"/>
<stop offset="0.989445" stop-color="#FABB00"/>
</linearGradient>
<linearGradient id="paint12_linear_13087_28042" x1="39.4429" y1="12.8794" x2="39.4429" y2="8.87629" gradientUnits="userSpaceOnUse">
<stop offset="0.239276" stop-color="#8C1700"/>
<stop offset="1" stop-color="#FF7B15"/>
</linearGradient>
<linearGradient id="paint13_linear_13087_28042" x1="39.452" y1="18.5392" x2="39.452" y2="12.9057" gradientUnits="userSpaceOnUse">
<stop offset="0.353385" stop-color="#8C1700"/>
<stop offset="1" stop-color="#FF7B15"/>
</linearGradient>
<linearGradient id="paint14_linear_13087_28042" x1="39.4489" y1="8.71076" x2="39.4489" y2="15.8143" gradientUnits="userSpaceOnUse">
<stop stop-color="#FBF7AD"/>
<stop offset="0.380718" stop-color="#FACC30"/>
<stop offset="0.9702" stop-color="#FABB00"/>
</linearGradient>
<linearGradient id="paint15_linear_13087_28042" x1="30.869" y1="16.9993" x2="30.869" y2="8.76612" gradientUnits="userSpaceOnUse">
<stop stop-color="#8C1700"/>
<stop offset="1" stop-color="#FF7B15"/>
</linearGradient>
<linearGradient id="paint16_linear_13087_28042" x1="30.8824" y1="8.24526" x2="30.8824" y2="15.4661" gradientUnits="userSpaceOnUse">
<stop stop-color="#FAF5A3"/>
<stop offset="1" stop-color="#F4BA00"/>
</linearGradient>
<linearGradient id="paint17_linear_13087_28042" x1="12.0721" y1="17.5495" x2="7.89371" y2="18.8114" gradientUnits="userSpaceOnUse">
<stop offset="0.16" stop-color="#00613F"/>
<stop offset="0.83" stop-color="#2FB279"/>
</linearGradient>
<linearGradient id="paint18_linear_13087_28042" x1="14.2" y1="15.1919" x2="4.71816" y2="11.9495" gradientUnits="userSpaceOnUse">
<stop stop-color="#006642"/>
<stop offset="0.83" stop-color="#0FDB83"/>
</linearGradient>
<linearGradient id="paint19_linear_13087_28042" x1="16.1805" y1="13.2522" x2="16.9983" y2="4.97899" gradientUnits="userSpaceOnUse">
<stop stop-color="#006642"/>
<stop offset="0.83" stop-color="#0FDB83"/>
</linearGradient>
<radialGradient id="paint20_radial_13087_28042" cx="0" cy="0" r="1" gradientTransform="matrix(2.362 -0.931006 0.940573 2.34205 11.8902 15.2222)" gradientUnits="userSpaceOnUse">
<stop stop-color="#FF005E"/>
<stop offset="1" stop-color="#AA0030"/>
</radialGradient>
<radialGradient id="paint21_radial_13087_28042" cx="0" cy="0" r="1" gradientTransform="matrix(2.19377 -0.864699 0.873584 2.17525 14.2765 10.7913)" gradientUnits="userSpaceOnUse">
<stop stop-color="#FF005E"/>
<stop offset="1" stop-color="#AA0030"/>
</radialGradient>
<radialGradient id="paint22_radial_13087_28042" cx="0" cy="0" r="1" gradientTransform="matrix(2.75659 -1.08654 1.09771 2.73332 16.9019 14.692)" gradientUnits="userSpaceOnUse">
<stop stop-color="#FF005E"/>
<stop offset="1" stop-color="#AA0030"/>
</radialGradient>
<linearGradient id="paint23_linear_13087_28042" x1="64.5305" y1="17.55" x2="68.7088" y2="18.8119" gradientUnits="userSpaceOnUse">
<stop offset="0.16" stop-color="#00613F"/>
<stop offset="0.83" stop-color="#2FB279"/>
</linearGradient>
<linearGradient id="paint24_linear_13087_28042" x1="61.7009" y1="13.6924" x2="70.5327" y2="11.9524" gradientUnits="userSpaceOnUse">
<stop stop-color="#006642"/>
<stop offset="0.83" stop-color="#0FDB83"/>
</linearGradient>
<linearGradient id="paint25_linear_13087_28042" x1="60.422" y1="13.2527" x2="59.6042" y2="4.97947" gradientUnits="userSpaceOnUse">
<stop stop-color="#006642"/>
<stop offset="0.83" stop-color="#0FDB83"/>
</linearGradient>
<radialGradient id="paint26_radial_13087_28042" cx="0" cy="0" r="1" gradientTransform="matrix(-2.65843 -0.730571 -0.743219 2.63801 65.0087 15.0222)" gradientUnits="userSpaceOnUse">
<stop stop-color="#FF144E"/>
<stop offset="1" stop-color="#8E032A"/>
</radialGradient>
<radialGradient id="paint27_radial_13087_28042" cx="0" cy="0" r="1" gradientTransform="matrix(-2.46909 -0.67854 -0.690286 2.45013 62.6004 10.6059)" gradientUnits="userSpaceOnUse">
<stop stop-color="#FF144E"/>
<stop offset="1" stop-color="#8E032A"/>
</radialGradient>
<radialGradient id="paint28_radial_13087_28042" cx="0" cy="0" r="1" gradientTransform="matrix(-2.75659 -1.08654 -1.09771 2.73332 59.7007 14.6924)" gradientUnits="userSpaceOnUse">
<stop stop-color="#FF005E"/>
<stop offset="1" stop-color="#AA0030"/>
</radialGradient>
<clipPath id="clip0_13087_28042">
<rect width="76" height="38" fill="white"/>
</clipPath>
</defs>
</svg>
